<svg width="592" height="200" viewBox="0 0 592 200" fill="none" xmlns="http://www.w3.org/2000/svg">
<path d="M0 0V200H201.255V0H0ZM173.795 61.8589C169.511 82.9206 146.274 167.792 146.274 167.792C144.938 174.764 139.146 179.999 132.205 179.999C124.271 179.999 117.837 173.155 117.837 164.703V124.898C117.837 114.761 110.125 106.54 100.598 106.54C91.0701 106.54 83.3588 114.795 83.3588 124.898V164.669C83.3588 173.121 76.9242 179.965 68.9901 179.965C62.05 179.965 56.258 174.729 54.9128 167.757C54.9128 167.757 31.6333 82.8864 28.1204 63.4758C25.9184 51.388 25.7899 38.4961 35.1291 29.257C41.1096 23.3272 49.1961 19.9994 57.6246 19.9994C66.053 19.9994 74.1395 23.3272 80.1201 29.257C85.5803 34.6899 92.9748 37.7405 100.683 37.7405C108.392 37.7405 115.787 34.6899 121.247 29.257C127.226 23.3278 135.311 20.0001 143.738 20.0001C152.165 20.0001 160.25 23.3278 166.229 29.257C175.063 38.0769 176.1 50.4042 173.795 61.8589Z" fill="white"/>
<path d="M50.9082 49.4193L49.7295 50.6016L74.8869 75.606L76.0656 74.4237L50.9082 49.4193Z" fill="white"/>
<path d="M74.8903 49.4121L49.7285 74.4121L50.907 75.5946L76.0688 50.5945L74.8903 49.4121Z" fill="white"/>
<path d="M274.429 57.0269C270.767 57.0869 267.134 56.3817 263.762 54.9566C260.84 53.7239 258.295 51.7439 256.384 49.2165C254.581 46.7664 253.608 43.8051 253.608 40.7644H265.312C265.364 42.0513 265.83 43.2873 266.64 44.289C267.506 45.3366 268.627 46.1438 269.896 46.6329C271.356 47.2159 272.917 47.5065 274.489 47.4884C276.104 47.5183 277.706 47.1973 279.184 46.5474C280.462 45.9956 281.566 45.1088 282.38 43.981C283.143 42.8389 283.545 41.4939 283.533 40.1208C283.521 38.7478 283.095 37.4101 282.311 36.2818C281.421 35.0853 280.213 34.1609 278.824 33.6127C277.114 32.933 275.284 32.6043 273.443 32.646H268.303V24.0913H273.443C275.036 24.0917 276.61 23.7534 278.062 23.099C279.331 22.5527 280.423 21.664 281.215 20.5326C281.979 19.4185 282.375 18.0931 282.346 16.7429C282.383 15.4783 282.051 14.2302 281.391 13.1503C280.731 12.0705 279.771 11.2054 278.627 10.6605C277.349 10.0573 275.945 9.76418 274.532 9.80501C273.06 9.79783 271.603 10.0889 270.248 10.6605C269.008 11.1748 267.924 12.0034 267.103 13.0643C266.309 14.1161 265.868 15.3917 265.844 16.7086H254.705C254.706 13.7039 255.656 10.7759 257.421 8.34216C259.25 5.86771 261.696 3.91506 264.516 2.67896C267.684 1.28019 271.119 0.585494 274.583 0.642945C278.018 0.569159 281.425 1.27406 284.548 2.70462C287.213 3.93774 289.502 5.85694 291.179 8.26517C292.756 10.5746 293.576 13.3154 293.527 16.1098C293.634 18.9521 292.608 21.7208 290.674 23.809C288.671 25.9009 286.033 27.275 283.168 27.7185V28.1463C287.212 28.6652 290.294 30.0654 292.413 32.3466C294.558 34.6683 295.692 37.7452 295.566 40.9013C295.625 43.8899 294.684 46.8126 292.893 49.2079C290.942 51.7429 288.356 53.7198 285.396 54.9395C281.925 56.3892 278.19 57.1001 274.429 57.0269Z" fill="white"/>
<path d="M311.117 71.713C309.754 71.7199 308.392 71.6083 307.047 71.3794C305.98 71.2071 304.934 70.9203 303.929 70.5239L306.499 61.9693C307.678 62.3507 308.903 62.575 310.141 62.6365C311.136 62.694 312.123 62.4333 312.959 61.8923C313.868 61.1954 314.546 60.2416 314.904 59.1548L315.573 57.4438L300.784 15.1152H312.779L321.348 45.3475H321.776L330.387 15.1152H342.494L326.471 60.7374C325.764 62.8329 324.706 64.7939 323.344 66.5375C322.019 68.1972 320.311 69.5121 318.366 70.37C316.072 71.3228 313.601 71.7806 311.117 71.713Z" fill="white"/>
<path d="M382.617 0L386.113 7.45113C384.975 8.40367 383.663 9.12704 382.249 9.58125C380.602 10.077 378.902 10.3785 377.185 10.4795C375.22 10.6221 372.835 10.719 370.031 10.7704C367.371 10.711 364.73 11.2337 362.294 12.3016C360.291 13.2808 358.681 14.9094 357.727 16.9212C356.564 19.5162 355.874 22.297 355.688 25.1337H356.09C357.224 22.7235 359.038 20.696 361.308 19.2994C363.84 17.8483 366.727 17.1313 369.645 17.2291C372.87 17.1575 376.055 17.9554 378.864 19.5389C381.524 21.0915 383.666 23.3913 385.025 26.1517C386.568 29.3798 387.323 32.9272 387.227 36.5028C387.322 40.2801 386.477 44.022 384.768 47.393C383.195 50.4072 380.774 52.8962 377.802 54.5532C374.507 56.3246 370.807 57.209 367.066 57.1196C363.303 57.2069 359.584 56.2884 356.296 54.4591C353.228 52.6506 350.791 49.9452 349.313 46.7086C347.566 42.7462 346.728 38.4436 346.863 34.1161V30.6942C346.863 20.7822 348.793 13.4309 352.655 8.64023C356.516 3.84961 362.197 1.42008 369.697 1.35164C371.736 1.35164 373.586 1.35164 375.231 1.35164C376.681 1.37704 378.13 1.29699 379.567 1.11211C380.656 0.981542 381.7 0.600892 382.617 0V0ZM367.083 48.2399C368.699 48.2814 370.286 47.8014 371.607 46.8711C372.935 45.8735 373.949 44.5168 374.529 42.9616C375.26 41.0189 375.612 38.9542 375.566 36.8793C375.622 34.8342 375.269 32.7985 374.529 30.891C373.943 29.3808 372.92 28.0793 371.59 27.1526C370.236 26.2653 368.642 25.8144 367.023 25.8608C365.796 25.8399 364.579 26.0882 363.459 26.588C362.401 27.0706 361.475 27.8014 360.76 28.7181C359.973 29.7379 359.392 30.8998 359.046 32.14C358.625 33.6633 358.423 35.239 358.447 36.8194C358.447 40.3325 359.212 43.1042 360.743 45.1345C361.463 46.1323 362.418 46.9377 363.524 47.4793C364.63 48.0209 365.852 48.2821 367.083 48.2399Z" fill="white"/>
<path d="M405.7 15.1152V56.2804H394.775V15.1152H405.7ZM423.47 31.1382V40.1206H401.947V31.1382H423.47ZM430.641 15.1152V56.2804H419.794V15.1152H430.641Z" fill="white"/>
<path d="M451.257 57.0521C448.84 57.098 446.442 56.6284 444.222 55.6748C442.232 54.8121 440.538 53.3879 439.347 51.5771C438.096 49.5375 437.476 47.1746 437.565 44.7847C437.499 42.7881 437.932 40.8065 438.824 39.0188C439.63 37.4995 440.809 36.21 442.252 35.2718C443.773 34.2894 445.446 33.5639 447.204 33.1246C449.119 32.633 451.07 32.2926 453.039 32.1066C455.438 31.8557 457.371 31.619 458.839 31.3966C459.964 31.2899 461.054 30.9458 462.035 30.3871C462.359 30.1723 462.62 29.877 462.795 29.5305C462.969 29.184 463.05 28.7982 463.029 28.411V28.2313C463.073 27.4964 462.952 26.7609 462.675 26.0786C462.398 25.3963 461.971 24.7844 461.427 24.2876C460.143 23.2878 458.537 22.7918 456.912 22.8932C455.168 22.8011 453.441 23.2786 451.994 24.2534C450.823 25.0874 449.971 26.2941 449.577 27.6753L439.004 26.8198C439.492 24.4193 440.583 22.1819 442.175 20.3183C443.832 18.4315 445.926 16.9778 448.275 16.0837C451.05 15.0245 454.001 14.5019 456.972 14.5438C459.193 14.5345 461.407 14.8047 463.56 15.348C465.563 15.8426 467.463 16.6853 469.173 17.8374C470.802 18.9704 472.132 20.4824 473.045 22.2431C474.039 24.1961 474.528 26.3665 474.468 28.5564V56.2822H463.629V50.5676H463.303C462.647 51.8684 461.745 53.0303 460.647 53.9895C459.471 54.9952 458.113 55.7676 456.646 56.265C454.907 56.8298 453.085 57.0959 451.257 57.0521ZM454.53 49.1732C456.074 49.2038 457.603 48.8603 458.985 48.1723C460.22 47.5502 461.267 46.6113 462.018 45.4519C462.753 44.2907 463.134 42.9414 463.115 41.5681V37.1967C462.66 37.4723 462.17 37.6853 461.658 37.8297C460.974 38.0338 460.279 38.2023 459.576 38.3344C458.805 38.4884 458.034 38.6253 457.263 38.7365L455.172 39.0445C453.966 39.2058 452.785 39.5221 451.659 39.9855C450.744 40.3435 449.938 40.9331 449.32 41.6964C448.737 42.4717 448.435 43.4219 448.464 44.3911C448.426 45.0792 448.563 45.7657 448.863 46.3865C449.162 47.0073 449.615 47.5422 450.177 47.9413C451.459 48.8051 452.984 49.2367 454.53 49.1732Z" fill="white"/>
<path d="M481.312 56.2811L492.777 34.8345H503.667L492.263 56.2811H481.312ZM507.514 56.2811V24.0642H499.802C498.088 23.9464 496.39 24.4608 495.03 25.5099C494.521 25.9227 494.112 26.4447 493.833 27.0372C493.554 27.6296 493.413 28.2772 493.419 28.9318C493.402 29.5838 493.534 30.231 493.806 30.8241C494.078 31.4172 494.482 31.9404 494.987 32.3537C496.342 33.3623 498.014 33.8511 499.7 33.731H511.344V41.4302H499.674C496.547 41.502 493.437 40.9554 490.523 39.8219C488.141 38.9172 486.062 37.3607 484.526 35.3307C483.121 33.3809 482.395 31.0248 482.461 28.6238C482.389 26.1104 483.111 23.6382 484.526 21.5576C486.032 19.4398 488.113 17.7955 490.523 16.8184C493.445 15.6186 496.584 15.036 499.742 15.1074H518.13V56.2811H507.514Z" fill="white"/>
<path d="M276.279 87.1636H288.608C292.686 87.0839 296.718 88.0438 300.321 89.9524C303.681 91.76 306.463 94.4756 308.349 97.7885C310.353 101.414 311.358 105.505 311.262 109.645C311.355 113.671 310.348 117.646 308.349 121.143C306.437 124.381 303.656 127.021 300.321 128.765C296.703 130.628 292.678 131.563 288.608 131.485H276.279C272.198 131.565 268.161 130.639 264.523 128.791C261.178 127.067 258.388 124.433 256.478 121.194C254.476 117.671 253.472 113.669 253.573 109.62C253.473 105.476 254.488 101.382 256.512 97.7628C258.409 94.4487 261.204 91.7358 264.575 89.9353C268.18 88.0418 272.206 87.0884 276.279 87.1636ZM276.279 96.8646C274.116 96.8191 271.975 97.3007 270.041 98.2676C268.227 99.2217 266.757 100.717 265.834 102.545C264.763 104.754 264.248 107.192 264.335 109.645C264.251 112.002 264.782 114.34 265.877 116.429C266.846 118.171 268.318 119.582 270.101 120.476C272.028 121.395 274.144 121.852 276.279 121.81H288.651C290.785 121.859 292.9 121.389 294.812 120.441C296.562 119.528 297.987 118.097 298.89 116.344C299.929 114.267 300.432 111.965 300.355 109.645C300.44 107.196 299.937 104.762 298.89 102.545C297.998 100.73 296.564 99.2354 294.786 98.2676C292.884 97.2863 290.766 96.798 288.625 96.8475L276.279 96.8646ZM287.923 80.3027V138.406H276.896V80.3027H287.923Z" fill="white"/>
<path d="M338.227 136.952C334.453 137.055 330.721 136.142 327.422 134.308C324.411 132.554 321.974 129.966 320.405 126.857C318.785 123.373 317.945 119.578 317.945 115.736C317.945 111.895 318.785 108.099 320.405 104.615C321.973 101.508 324.411 98.9225 327.422 97.1724C330.752 95.4164 334.461 94.4985 338.227 94.4985C341.992 94.4985 345.701 95.4164 349.031 97.1724C352.042 98.9225 354.48 101.508 356.048 104.615C357.668 108.099 358.508 111.895 358.508 115.736C358.508 119.578 357.668 123.373 356.048 126.857C354.48 129.966 352.042 132.554 349.031 134.308C345.732 136.142 342 137.055 338.227 136.952ZM338.278 128.115C340.009 128.17 341.7 127.592 343.033 126.489C344.375 125.296 345.372 123.766 345.921 122.058C347.226 117.88 347.226 113.404 345.921 109.226C345.368 107.515 344.372 105.98 343.033 104.777C341.703 103.669 340.01 103.087 338.278 103.144C336.528 103.089 334.817 103.669 333.463 104.777C332.103 105.968 331.093 107.506 330.541 109.226C329.226 113.402 329.226 117.881 330.541 122.058C331.089 123.775 332.099 125.308 333.463 126.489C334.827 127.597 336.546 128.175 338.304 128.115H338.278Z" fill="white"/>
<path d="M365.979 151.589V94.957H377.254V101.869H377.76C378.332 100.635 379.07 99.4834 379.953 98.4473C380.988 97.2302 382.266 96.2425 383.706 95.5473C385.517 94.717 387.497 94.3186 389.489 94.3838C392.429 94.363 395.314 95.1759 397.809 96.7278C400.482 98.4389 402.602 100.888 403.909 103.777C405.423 106.908 406.183 110.835 406.189 115.557C406.309 119.545 405.551 123.51 403.969 127.174C402.699 130.083 400.617 132.566 397.972 134.326C395.437 135.946 392.482 136.791 389.472 136.755C387.531 136.812 385.602 136.435 383.826 135.652C382.38 135.003 381.087 134.059 380.03 132.88C379.113 131.856 378.351 130.703 377.768 129.458H377.425V151.589H365.979ZM377.168 115.565C377.123 117.745 377.472 119.916 378.197 121.973C378.758 123.646 379.779 125.128 381.144 126.25C382.514 127.242 384.164 127.776 385.856 127.776C387.549 127.776 389.199 127.242 390.569 126.25C391.923 125.121 392.94 123.641 393.508 121.973C394.21 119.934 394.549 117.789 394.51 115.634C394.552 113.501 394.216 111.378 393.516 109.363C392.962 107.693 391.95 106.211 390.595 105.086C389.219 104.112 387.577 103.584 385.89 103.575C384.204 103.566 382.556 104.075 381.17 105.034C379.812 106.122 378.792 107.573 378.231 109.218C377.497 111.252 377.137 113.403 377.168 115.565Z" fill="white"/>
<path d="M424.704 94.9575V136.114H413.779V94.9575H424.704ZM438.155 123.496L449.294 94.9575H457.991L441.977 136.148H434.377L418.637 94.9575H427.308L438.155 123.496ZM452.164 136.114V94.9575H462.952V136.114H452.164Z" fill="white"/>
<path d="M477.372 151.59C476.008 151.597 474.647 151.486 473.302 151.256C472.233 151.079 471.185 150.793 470.175 150.4L472.745 141.846C473.922 142.227 475.143 142.451 476.378 142.513C477.375 142.573 478.364 142.309 479.197 141.76C480.111 141.071 480.79 140.119 481.142 139.031L481.819 137.32L467.039 94.9575H479.034L487.602 125.181H488.031L496.642 94.9575H508.748L492.726 140.563C492.017 142.66 490.96 144.623 489.599 146.371C488.268 148.029 486.558 149.344 484.612 150.204C482.324 151.171 479.856 151.644 477.372 151.59Z" fill="white"/>
<path d="M508.876 136.149L508.808 127.098H510.178C511.068 127.118 511.943 126.871 512.689 126.388C513.493 125.792 514.108 124.978 514.463 124.044C515.006 122.669 515.374 121.232 515.559 119.766C515.868 117.586 516.048 115.389 516.099 113.188L516.767 94.9663H548.118V136.123H537.219V103.966H527.049L526.406 116.533C526.311 119.535 525.892 122.517 525.156 125.43C524.624 127.62 523.682 129.689 522.379 131.529C521.277 133.044 519.801 134.249 518.095 135.028C516.264 135.811 514.286 136.193 512.295 136.149H508.876Z" fill="white"/>
<path d="M568.784 136.927C566.371 136.969 563.977 136.499 561.759 135.549C559.769 134.687 558.074 133.263 556.883 131.452C555.631 129.409 555.012 127.044 555.101 124.651C555.034 122.657 555.467 120.678 556.361 118.893C557.168 117.373 558.347 116.082 559.788 115.138C561.312 114.162 562.984 113.439 564.74 112.999C566.655 112.503 568.606 112.163 570.575 111.981C572.974 111.725 574.911 111.494 576.376 111.271C577.5 111.159 578.588 110.815 579.572 110.262C579.896 110.046 580.158 109.749 580.332 109.401C580.506 109.053 580.587 108.666 580.566 108.277V108.123C580.608 107.388 580.486 106.653 580.209 105.971C579.932 105.289 579.506 104.677 578.963 104.179C577.677 103.178 576.067 102.682 574.439 102.785C572.7 102.695 570.978 103.169 569.53 104.137C568.362 104.974 567.511 106.179 567.114 107.558L556.541 106.703C557.031 104.308 558.119 102.075 559.702 100.21C561.362 98.3221 563.46 96.8683 565.811 95.9754C568.587 94.934 571.535 94.4288 574.499 94.4869C576.721 94.4776 578.935 94.7477 581.088 95.2911C583.088 95.7856 584.985 96.6284 586.692 97.7805C588.317 98.8892 589.648 100.374 590.573 102.109C591.567 104.062 592.056 106.233 591.995 108.423V136.182H581.14V130.476H580.78C580.121 131.776 579.22 132.937 578.124 133.898C576.95 134.91 575.591 135.686 574.122 136.182C572.396 136.721 570.593 136.973 568.784 136.927ZM572.066 129.048C573.61 129.078 575.139 128.735 576.521 128.047C577.753 127.42 578.798 126.482 579.555 125.327C580.289 124.165 580.67 122.816 580.651 121.443V117.071C580.193 117.347 579.701 117.559 579.186 117.704C578.569 117.884 577.875 118.055 577.104 118.209C576.333 118.363 575.57 118.491 574.799 118.611L572.709 118.919C571.499 119.08 570.316 119.397 569.187 119.86C568.274 120.218 567.471 120.808 566.857 121.571C566.273 122.346 565.971 123.297 566 124.266C565.963 124.954 566.1 125.64 566.4 126.261C566.7 126.881 567.151 127.416 567.713 127.816C568.988 128.674 570.504 129.106 572.04 129.048H572.066Z" fill="white"/>
<path d="M280.897 175.442V171.498H303.286V175.442H294.264V199.01H289.98V175.442H280.897Z" fill="white"/>
<path d="M266.058 199.583C263.752 199.673 261.472 199.069 259.514 197.849C257.557 196.628 256.012 194.848 255.082 192.739C254.08 190.411 253.567 187.903 253.574 185.369C253.582 182.835 254.109 180.33 255.125 178.008C256.081 175.967 257.588 174.234 259.478 173.003C261.425 171.764 263.697 171.13 266.006 171.181C267.809 171.153 269.597 171.521 271.241 172.259C272.743 172.936 274.055 173.97 275.063 175.27C276.068 176.583 276.707 178.139 276.914 179.779H272.681C272.319 178.475 271.569 177.311 270.53 176.442C269.28 175.416 267.691 174.894 266.075 174.979C264.531 174.947 263.016 175.396 261.74 176.263C260.459 177.171 259.459 178.418 258.852 179.864C258.133 181.583 257.782 183.434 257.824 185.296C257.78 187.196 258.124 189.085 258.835 190.848C259.426 192.319 260.421 193.594 261.705 194.527C262.99 195.405 264.518 195.86 266.075 195.827C267.103 195.842 268.124 195.647 269.074 195.254C269.95 194.889 270.73 194.327 271.353 193.611C271.986 192.868 272.44 191.99 272.681 191.045H276.914C276.687 192.644 276.068 194.162 275.111 195.464C274.155 196.765 272.89 197.81 271.43 198.505C269.748 199.276 267.908 199.645 266.058 199.583Z" fill="white"/>
<path d="M319.23 199.581C316.95 199.65 314.7 199.048 312.76 197.851C310.819 196.654 309.274 194.915 308.315 192.848C307.224 190.518 306.688 187.968 306.747 185.397C306.687 182.81 307.224 180.243 308.315 177.895C309.292 175.829 310.837 174.084 312.769 172.861C314.702 171.639 316.942 170.99 319.23 170.99C321.518 170.99 323.759 171.639 325.691 172.861C327.624 174.084 329.169 175.829 330.146 177.895C331.24 180.242 331.779 182.809 331.723 185.397C331.779 187.969 331.239 190.519 330.146 192.848C329.19 194.917 327.645 196.658 325.703 197.856C323.762 199.053 321.511 199.653 319.23 199.581ZM319.23 195.783C320.907 195.852 322.556 195.341 323.9 194.337C325.137 193.338 326.074 192.018 326.607 190.522C327.197 188.875 327.487 187.137 327.464 185.389C327.483 183.641 327.193 181.903 326.607 180.256C326.077 178.748 325.14 177.416 323.9 176.406C322.533 175.449 320.904 174.935 319.235 174.935C317.565 174.935 315.936 175.449 314.569 176.406C313.324 177.412 312.386 178.745 311.862 180.256C311.272 181.902 310.982 183.64 311.005 185.389C310.978 187.137 311.268 188.876 311.862 190.522C312.389 192.021 313.327 193.343 314.569 194.337C315.909 195.341 317.556 195.852 319.23 195.783Z" fill="white"/>
<path d="M342.407 171.498V199.01H338.175V171.498H342.407ZM353.246 193.278L362.868 171.498H366.886L354.968 199.01H351.541L339.846 171.498H343.795L353.246 193.278ZM364.085 199.01V171.498H368.292V199.01H364.085Z" fill="white"/>
<path d="M384.177 199.66C382.541 199.684 380.919 199.345 379.43 198.667C378.037 198.051 376.848 197.051 376.003 195.784C375.139 194.417 374.704 192.824 374.752 191.208C374.692 189.865 375.016 188.532 375.686 187.367C376.299 186.388 377.159 185.589 378.18 185.048C379.258 184.47 380.411 184.044 381.607 183.782C382.866 183.509 384.134 183.286 385.42 183.115C387.09 182.901 388.453 182.739 389.498 182.619C390.293 182.573 391.073 182.375 391.794 182.037C392.039 181.892 392.237 181.681 392.366 181.428C392.495 181.175 392.549 180.891 392.522 180.608V180.463C392.57 179.715 392.466 178.966 392.217 178.259C391.969 177.552 391.58 176.902 391.074 176.348C390.484 175.82 389.792 175.417 389.041 175.164C388.29 174.911 387.495 174.813 386.705 174.877C385.019 174.777 383.348 175.244 381.958 176.203C380.93 176.934 380.097 177.907 379.533 179.034L375.515 177.597C376.127 176.071 377.117 174.726 378.394 173.688C379.56 172.764 380.905 172.091 382.344 171.712C383.721 171.342 385.141 171.152 386.568 171.147C387.594 171.164 388.618 171.27 389.626 171.463C390.813 171.682 391.948 172.117 392.977 172.747C394.137 173.448 395.083 174.454 395.71 175.655C396.501 177.28 396.872 179.077 396.789 180.882V199.01H392.557V195.288H392.343C391.967 195.999 391.481 196.645 390.903 197.205C390.13 197.94 389.222 198.521 388.23 198.915C386.943 199.434 385.565 199.687 384.177 199.66ZM384.82 195.861C386.295 195.908 387.757 195.568 389.061 194.878C390.155 194.279 391.062 193.391 391.683 192.311C392.252 191.313 392.548 190.183 392.54 189.035V185.168C392.207 185.463 391.802 185.664 391.366 185.75C390.681 185.94 389.986 186.089 389.284 186.195C388.495 186.323 387.741 186.426 387.005 186.52L385.222 186.742C384.175 186.875 383.142 187.107 382.138 187.435C381.266 187.706 380.477 188.191 379.842 188.847C379.237 189.561 378.93 190.479 378.985 191.413C378.949 192.06 379.081 192.705 379.368 193.287C379.654 193.868 380.086 194.366 380.621 194.732C381.872 195.528 383.338 195.922 384.82 195.861Z" fill="white"/>
<path d="M400.85 175.442V171.498H423.212V175.442H414.173V199.01H409.94V175.442H400.85Z" fill="white"/>
<path d="M439.149 199.581C436.875 199.643 434.632 199.038 432.699 197.842C430.765 196.645 429.224 194.91 428.268 192.849C427.171 190.521 426.631 187.97 426.691 185.398C426.63 182.809 427.17 180.241 428.268 177.895C429.247 175.832 430.793 174.09 432.725 172.87C434.658 171.649 436.897 171.001 439.183 171.001C441.47 171.001 443.709 171.649 445.641 172.87C447.574 174.09 449.119 175.832 450.099 177.895C451.19 180.243 451.726 182.81 451.667 185.398C451.726 187.969 451.189 190.519 450.099 192.849C449.14 194.915 447.594 196.655 445.654 197.851C443.713 199.048 441.463 199.65 439.183 199.581H439.149ZM439.149 195.783C440.823 195.852 442.47 195.341 443.81 194.337C445.05 193.341 445.988 192.02 446.518 190.522C447.111 188.876 447.401 187.138 447.374 185.389C447.398 183.641 447.108 181.902 446.518 180.256C445.99 178.747 445.053 177.414 443.81 176.407C442.443 175.449 440.814 174.935 439.145 174.935C437.475 174.935 435.846 175.449 434.48 176.407C433.239 177.417 432.303 178.749 431.772 180.256C431.186 181.903 430.896 183.641 430.915 185.389C430.892 187.137 431.183 188.875 431.772 190.522C432.305 192.018 433.242 193.339 434.48 194.337C435.823 195.341 437.472 195.852 439.149 195.783Z" fill="white"/>
<path d="M455.686 199.01V195.074H456.688C457.409 195.099 458.122 194.927 458.753 194.578C459.373 194.168 459.842 193.567 460.09 192.867C460.502 191.749 460.767 190.581 460.878 189.394C461.066 187.906 461.195 185.972 461.281 183.705L461.786 171.523H480.156V199.01H475.923V175.441H465.77L465.342 185.254C465.269 187.26 465.069 189.261 464.742 191.242C464.502 192.73 464.034 194.173 463.354 195.519C462.803 196.604 461.957 197.511 460.912 198.137C459.732 198.751 458.412 199.046 457.082 198.993L455.686 199.01Z" fill="white"/>
<path d="M499.066 199.581C496.786 199.65 494.536 199.048 492.596 197.851C490.655 196.655 489.11 194.915 488.151 192.849C487.06 190.519 486.524 187.969 486.583 185.398C486.523 182.81 487.06 180.243 488.151 177.895C489.13 175.832 490.676 174.09 492.608 172.87C494.54 171.649 496.78 171.001 499.066 171.001C501.353 171.001 503.592 171.649 505.524 172.87C507.456 174.09 509.002 175.832 509.982 177.895C511.073 180.243 511.609 182.81 511.55 185.398C511.609 187.969 511.072 190.519 509.982 192.849C509.023 194.915 507.477 196.655 505.537 197.851C503.596 199.048 501.346 199.65 499.066 199.581ZM499.066 195.783C500.741 195.853 502.388 195.343 503.727 194.337C504.97 193.342 505.911 192.021 506.443 190.522C507.033 188.875 507.323 187.137 507.3 185.389C507.319 183.641 507.029 181.903 506.443 180.256C505.913 178.746 504.972 177.414 503.727 176.407C502.362 175.449 500.735 174.935 499.066 174.935C497.398 174.935 495.77 175.449 494.405 176.407C493.16 177.414 492.22 178.746 491.689 180.256C491.103 181.903 490.813 183.641 490.832 185.389C490.81 187.137 491.1 188.875 491.689 190.522C492.222 192.021 493.162 193.342 494.405 194.337C495.745 195.343 497.392 195.853 499.066 195.783Z" fill="white"/>
<path d="M535.017 171.498V175.442H522.242V199.01H518.01V171.498H535.017Z" fill="white"/>
<path d="M545.428 192.782L558.7 171.498H563.583V199.01H559.359V177.734L546.139 199.01H541.187V171.498H545.471L545.428 192.782Z" fill="white"/>
<path d="M569.538 199.009L577.361 185.322H581.953L574.131 199.009H569.538ZM587.908 199.009V175.364H580.582C579.192 175.284 577.816 175.689 576.692 176.511C576.227 176.891 575.857 177.374 575.612 177.922C575.366 178.47 575.252 179.067 575.279 179.667C575.25 180.245 575.349 180.823 575.57 181.358C575.791 181.894 576.127 182.374 576.555 182.764C577.55 183.566 578.809 183.968 580.085 183.893H588.979V187.837H580.085C578.424 187.878 576.774 187.541 575.262 186.853C573.961 186.244 572.872 185.261 572.134 184.03C571.38 182.702 571.004 181.193 571.046 179.667C571 178.13 571.399 176.613 572.194 175.296C572.988 174.053 574.133 173.073 575.484 172.481C577.093 171.792 578.832 171.457 580.582 171.497H591.918V199.009H587.908Z" fill="white"/>
</svg>
