<svg width="592" height="200" viewBox="0 0 592 200" fill="none" xmlns="http://www.w3.org/2000/svg">
<path d="M0 0V200H201.255V0H0ZM173.795 61.8589C169.511 82.9206 146.274 167.792 146.274 167.792C144.938 174.764 139.146 179.999 132.205 179.999C124.271 179.999 117.837 173.155 117.837 164.703V124.898C117.837 114.761 110.125 106.54 100.598 106.54C91.0701 106.54 83.3588 114.795 83.3588 124.898V164.669C83.3588 173.121 76.9242 179.965 68.9901 179.965C62.05 179.965 56.258 174.729 54.9128 167.757C54.9128 167.757 31.6333 82.8864 28.1204 63.4758C25.9184 51.388 25.7899 38.4961 35.1291 29.257C41.1096 23.3272 49.1961 19.9994 57.6246 19.9994C66.053 19.9994 74.1395 23.3272 80.1201 29.257C85.5803 34.6899 92.9748 37.7405 100.683 37.7405C108.392 37.7405 115.787 34.6899 121.247 29.257C127.226 23.3278 135.311 20.0001 143.738 20.0001C152.165 20.0001 160.25 23.3278 166.229 29.257C175.063 38.0769 176.1 50.4042 173.795 61.8589Z" fill="#0037D8"/>
<path d="M50.9082 49.4193L49.7295 50.6016L74.8869 75.606L76.0656 74.4237L50.9082 49.4193Z" fill="#0037D8"/>
<path d="M74.8903 49.4121L49.7285 74.4121L50.907 75.5946L76.0688 50.5945L74.8903 49.4121Z" fill="#0037D8"/>
<path d="M274.428 57.0269C270.766 57.0869 267.133 56.3817 263.761 54.9566C260.839 53.7239 258.295 51.7439 256.383 49.2165C254.58 46.7664 253.607 43.8051 253.607 40.7644H265.311C265.363 42.0513 265.829 43.2873 266.639 44.289C267.505 45.3366 268.626 46.1438 269.895 46.6329C271.355 47.2159 272.916 47.5065 274.488 47.4884C276.103 47.5183 277.705 47.1973 279.183 46.5474C280.461 45.9956 281.565 45.1088 282.379 43.981C283.143 42.8389 283.544 41.4939 283.532 40.1208C283.52 38.7478 283.094 37.4101 282.31 36.2818C281.42 35.0853 280.212 34.1609 278.823 33.6127C277.113 32.933 275.283 32.6043 273.443 32.646H268.302V24.0913H273.443C275.035 24.0917 276.609 23.7534 278.061 23.099C279.33 22.5527 280.422 21.664 281.214 20.5326C281.978 19.4185 282.374 18.0931 282.345 16.7429C282.382 15.4783 282.05 14.2302 281.39 13.1503C280.73 12.0705 279.77 11.2054 278.626 10.6605C277.348 10.0573 275.944 9.76418 274.531 9.80501C273.059 9.79783 271.602 10.0889 270.247 10.6605C269.007 11.1748 267.923 12.0034 267.102 13.0643C266.308 14.1161 265.867 15.3917 265.843 16.7086H254.704C254.705 13.7039 255.655 10.7759 257.42 8.34216C259.249 5.86771 261.695 3.91506 264.515 2.67896C267.683 1.28019 271.118 0.585494 274.582 0.642945C278.017 0.569159 281.424 1.27406 284.547 2.70462C287.212 3.93774 289.501 5.85694 291.178 8.26517C292.755 10.5746 293.575 13.3154 293.526 16.1098C293.633 18.9521 292.607 21.7208 290.673 23.809C288.67 25.9009 286.032 27.275 283.167 27.7185V28.1463C287.211 28.6652 290.293 30.0654 292.412 32.3466C294.557 34.6683 295.691 37.7452 295.565 40.9013C295.624 43.8899 294.683 46.8126 292.892 49.2079C290.941 51.7429 288.355 53.7198 285.395 54.9395C281.924 56.3892 278.189 57.1001 274.428 57.0269Z" fill="#0037D8"/>
<path d="M311.116 71.713C309.753 71.7199 308.391 71.6083 307.046 71.3794C305.979 71.2071 304.933 70.9203 303.928 70.5239L306.498 61.9693C307.677 62.3507 308.902 62.575 310.14 62.6365C311.135 62.694 312.122 62.4333 312.958 61.8923C313.867 61.1954 314.545 60.2416 314.903 59.1548L315.572 57.4438L300.783 15.1152H312.779L321.347 45.3475H321.775L330.386 15.1152H342.493L326.47 60.7374C325.763 62.8329 324.705 64.7939 323.343 66.5375C322.018 68.1972 320.31 69.5121 318.365 70.37C316.071 71.3228 313.6 71.7806 311.116 71.713Z" fill="#0037D8"/>
<path d="M382.617 0L386.113 7.45113C384.975 8.40367 383.663 9.12704 382.249 9.58125C380.602 10.077 378.902 10.3785 377.185 10.4795C375.22 10.6221 372.835 10.719 370.031 10.7704C367.371 10.711 364.73 11.2337 362.294 12.3016C360.291 13.2808 358.681 14.9094 357.727 16.9212C356.564 19.5162 355.874 22.297 355.688 25.1337H356.09C357.224 22.7235 359.038 20.696 361.308 19.2994C363.84 17.8483 366.727 17.1313 369.645 17.2291C372.87 17.1575 376.055 17.9554 378.864 19.5389C381.524 21.0915 383.666 23.3913 385.025 26.1517C386.568 29.3798 387.323 32.9272 387.227 36.5028C387.322 40.2801 386.477 44.022 384.768 47.393C383.195 50.4072 380.774 52.8962 377.802 54.5532C374.507 56.3246 370.807 57.209 367.066 57.1196C363.303 57.2069 359.584 56.2884 356.296 54.4591C353.228 52.6506 350.791 49.9452 349.313 46.7086C347.566 42.7462 346.728 38.4436 346.863 34.1161V30.6942C346.863 20.7822 348.793 13.4309 352.655 8.64023C356.516 3.84961 362.197 1.42008 369.697 1.35164C371.736 1.35164 373.586 1.35164 375.231 1.35164C376.681 1.37704 378.13 1.29699 379.567 1.11211C380.656 0.981542 381.7 0.600892 382.617 0V0ZM367.083 48.2399C368.699 48.2814 370.286 47.8014 371.607 46.8711C372.935 45.8735 373.949 44.5168 374.529 42.9616C375.26 41.0189 375.612 38.9542 375.566 36.8793C375.622 34.8342 375.269 32.7985 374.529 30.891C373.943 29.3808 372.92 28.0793 371.59 27.1526C370.236 26.2653 368.642 25.8144 367.023 25.8608C365.796 25.8399 364.579 26.0882 363.459 26.588C362.401 27.0706 361.475 27.8014 360.76 28.7181C359.973 29.7379 359.392 30.8998 359.046 32.14C358.625 33.6633 358.423 35.239 358.447 36.8194C358.447 40.3325 359.212 43.1042 360.743 45.1345C361.463 46.1323 362.418 46.9377 363.524 47.4793C364.63 48.0209 365.852 48.2821 367.083 48.2399Z" fill="#0037D8"/>
<path d="M405.7 15.1152V56.2804H394.775V15.1152H405.7ZM423.47 31.1382V40.1206H401.947V31.1382H423.47ZM430.641 15.1152V56.2804H419.794V15.1152H430.641Z" fill="#0037D8"/>
<path d="M451.256 57.0516C448.839 57.0975 446.441 56.6279 444.221 55.6743C442.231 54.8116 440.537 53.3874 439.346 51.5766C438.095 49.537 437.475 47.1741 437.564 44.7842C437.498 42.7876 437.931 40.806 438.823 39.0183C439.629 37.499 440.808 36.2095 442.251 35.2714C443.772 34.2889 445.445 33.5634 447.203 33.1241C449.118 32.6325 451.069 32.2921 453.038 32.1061C455.437 31.8552 457.37 31.6185 458.838 31.3961C459.963 31.2894 461.053 30.9453 462.034 30.3866C462.358 30.1718 462.619 29.8765 462.794 29.53C462.968 29.1835 463.049 28.7977 463.028 28.4105V28.2309C463.072 27.4959 462.951 26.7604 462.674 26.0781C462.397 25.3958 461.97 24.7839 461.426 24.2871C460.142 23.2873 458.536 22.7913 456.911 22.8927C455.167 22.8006 453.44 23.2781 451.993 24.2529C450.822 25.0869 449.97 26.2936 449.576 27.6748L439.003 26.8193C439.491 24.4188 440.582 22.1814 442.174 20.3178C443.831 18.431 445.925 16.9773 448.274 16.0832C451.049 15.024 454 14.5014 456.971 14.5434C459.192 14.534 461.406 14.8042 463.559 15.3475C465.562 15.8422 467.462 16.6848 469.172 17.8369C470.801 18.9699 472.131 20.482 473.044 22.2426C474.038 24.1956 474.527 26.366 474.467 28.5559V56.2817H463.628V50.5671H463.302C462.646 51.8679 461.744 53.0298 460.646 53.989C459.47 54.9948 458.112 55.7671 456.645 56.2646C454.906 56.8293 453.084 57.0954 451.256 57.0516ZM454.529 49.1727C456.073 49.2033 457.602 48.8599 458.984 48.1718C460.219 47.5497 461.266 46.6108 462.017 45.4514C462.752 44.2902 463.133 42.9409 463.114 41.5676V37.1962C462.659 37.4718 462.169 37.6848 461.657 37.8292C460.973 38.0333 460.278 38.2018 459.575 38.3339C458.804 38.4879 458.033 38.6248 457.262 38.736L455.171 39.044C453.965 39.2053 452.784 39.5216 451.658 39.985C450.743 40.343 449.937 40.9326 449.319 41.6959C448.736 42.4712 448.434 43.4214 448.463 44.3907C448.425 45.0787 448.562 45.7652 448.862 46.386C449.161 47.0068 449.614 47.5417 450.176 47.9409C451.458 48.8046 452.983 49.2363 454.529 49.1727Z" fill="#0037D8"/>
<path d="M481.312 56.2811L492.777 34.8345H503.667L492.263 56.2811H481.312ZM507.514 56.2811V24.0642H499.802C498.088 23.9464 496.39 24.4608 495.03 25.5099C494.521 25.9227 494.112 26.4447 493.833 27.0372C493.554 27.6296 493.413 28.2772 493.419 28.9318C493.402 29.5838 493.534 30.231 493.806 30.8241C494.078 31.4172 494.482 31.9404 494.987 32.3537C496.342 33.3623 498.014 33.8511 499.7 33.731H511.344V41.4302H499.674C496.547 41.502 493.437 40.9554 490.523 39.8219C488.141 38.9172 486.062 37.3607 484.526 35.3307C483.121 33.3809 482.395 31.0248 482.461 28.6238C482.389 26.1104 483.111 23.6382 484.526 21.5576C486.032 19.4398 488.113 17.7955 490.523 16.8184C493.445 15.6186 496.584 15.036 499.742 15.1074H518.13V56.2811H507.514Z" fill="#0037D8"/>
<path d="M276.279 87.1636H288.608C292.686 87.0839 296.718 88.0438 300.321 89.9524C303.681 91.76 306.463 94.4756 308.349 97.7885C310.353 101.414 311.358 105.505 311.262 109.645C311.355 113.671 310.348 117.646 308.349 121.143C306.437 124.381 303.656 127.021 300.321 128.765C296.703 130.628 292.678 131.563 288.608 131.485H276.279C272.198 131.565 268.161 130.639 264.523 128.791C261.178 127.067 258.388 124.433 256.478 121.194C254.476 117.671 253.472 113.669 253.573 109.62C253.473 105.476 254.488 101.382 256.512 97.7628C258.409 94.4487 261.204 91.7358 264.575 89.9353C268.18 88.0418 272.206 87.0884 276.279 87.1636ZM276.279 96.8646C274.116 96.8191 271.975 97.3007 270.041 98.2676C268.227 99.2217 266.757 100.717 265.834 102.545C264.763 104.754 264.248 107.192 264.335 109.645C264.251 112.002 264.782 114.34 265.877 116.429C266.846 118.171 268.318 119.582 270.101 120.476C272.028 121.395 274.144 121.852 276.279 121.81H288.651C290.785 121.859 292.9 121.389 294.812 120.441C296.562 119.528 297.987 118.097 298.89 116.344C299.929 114.267 300.432 111.965 300.355 109.645C300.44 107.196 299.937 104.762 298.89 102.545C297.998 100.73 296.564 99.2354 294.786 98.2676C292.884 97.2863 290.766 96.798 288.625 96.8475L276.279 96.8646ZM287.923 80.3027V138.406H276.896V80.3027H287.923Z" fill="#0037D8"/>
<path d="M338.226 136.952C334.452 137.055 330.72 136.142 327.421 134.309C324.41 132.554 321.973 129.966 320.404 126.858C318.784 123.373 317.944 119.578 317.944 115.737C317.944 111.895 318.784 108.1 320.404 104.615C321.972 101.508 324.41 98.923 327.421 97.1729C330.751 95.4169 334.46 94.499 338.226 94.499C341.991 94.499 345.7 95.4169 349.03 97.1729C352.041 98.923 354.479 101.508 356.047 104.615C357.668 108.1 358.507 111.895 358.507 115.737C358.507 119.578 357.668 123.373 356.047 126.858C354.479 129.966 352.041 132.554 349.03 134.309C345.732 136.142 341.999 137.055 338.226 136.952ZM338.277 128.115C340.008 128.17 341.699 127.592 343.032 126.49C344.374 125.297 345.371 123.767 345.92 122.058C347.225 117.88 347.225 113.404 345.92 109.226C345.367 107.515 344.371 105.981 343.032 104.778C341.702 103.669 340.009 103.087 338.277 103.144C336.527 103.089 334.816 103.67 333.462 104.778C332.102 105.969 331.092 107.506 330.54 109.226C329.225 113.403 329.225 117.882 330.54 122.058C331.088 123.776 332.098 125.309 333.462 126.49C334.826 127.598 336.545 128.175 338.303 128.115H338.277Z" fill="#0037D8"/>
<path d="M365.978 151.589V94.957H377.253V101.869H377.759C378.331 100.635 379.069 99.4834 379.952 98.4473C380.987 97.2302 382.265 96.2425 383.705 95.5473C385.516 94.717 387.496 94.3186 389.488 94.3838C392.428 94.363 395.313 95.1759 397.808 96.7278C400.482 98.4389 402.601 100.888 403.908 103.777C405.422 106.908 406.182 110.835 406.188 115.557C406.308 119.545 405.55 123.51 403.968 127.174C402.698 130.083 400.616 132.566 397.971 134.326C395.436 135.946 392.481 136.791 389.471 136.755C387.53 136.812 385.601 136.435 383.825 135.652C382.379 135.003 381.086 134.059 380.029 132.88C379.112 131.856 378.35 130.703 377.767 129.458H377.424V151.589H365.978ZM377.167 115.565C377.122 117.745 377.471 119.916 378.196 121.973C378.757 123.646 379.778 125.128 381.143 126.25C382.513 127.242 384.163 127.776 385.855 127.776C387.548 127.776 389.198 127.242 390.568 126.25C391.922 125.121 392.939 123.641 393.507 121.973C394.209 119.934 394.548 117.789 394.509 115.634C394.551 113.501 394.215 111.378 393.515 109.363C392.961 107.693 391.949 106.211 390.594 105.086C389.218 104.112 387.576 103.584 385.889 103.575C384.203 103.566 382.555 104.075 381.169 105.034C379.811 106.122 378.792 107.573 378.23 109.218C377.496 111.252 377.136 113.403 377.167 115.565Z" fill="#0037D8"/>
<path d="M424.704 94.957V136.114H413.779V94.957H424.704ZM438.155 123.495L449.294 94.957H457.991L441.977 136.148H434.377L418.637 94.957H427.308L438.155 123.495ZM452.164 136.114V94.957H462.952V136.114H452.164Z" fill="#0037D8"/>
<path d="M477.371 151.589C476.007 151.597 474.646 151.485 473.301 151.255C472.232 151.079 471.184 150.792 470.174 150.4L472.744 141.845C473.921 142.227 475.142 142.451 476.377 142.513C477.374 142.572 478.363 142.308 479.196 141.76C480.11 141.071 480.789 140.118 481.141 139.031L481.818 137.32L467.038 94.957H479.033L487.601 125.181H488.03L496.641 94.957H508.747L492.725 140.562C492.016 142.659 490.959 144.623 489.598 146.371C488.267 148.029 486.557 149.343 484.611 150.203C482.323 151.171 479.855 151.643 477.371 151.589Z" fill="#0037D8"/>
<path d="M508.876 136.148L508.808 127.097H510.178C511.068 127.118 511.943 126.87 512.689 126.387C513.493 125.792 514.108 124.978 514.463 124.043C515.006 122.669 515.374 121.232 515.559 119.766C515.868 117.585 516.048 115.389 516.099 113.187L516.767 94.9658H548.118V136.122H537.219V103.965H527.049L526.406 116.532C526.311 119.534 525.892 122.517 525.156 125.429C524.624 127.619 523.682 129.689 522.379 131.529C521.277 133.043 519.801 134.248 518.095 135.027C516.264 135.811 514.286 136.193 512.295 136.148H508.876Z" fill="#0037D8"/>
<path d="M568.784 136.927C566.371 136.969 563.977 136.499 561.759 135.549C559.769 134.687 558.074 133.263 556.883 131.452C555.631 129.409 555.012 127.044 555.101 124.651C555.034 122.657 555.467 120.678 556.361 118.893C557.168 117.373 558.347 116.082 559.788 115.138C561.312 114.162 562.984 113.439 564.74 112.999C566.655 112.503 568.606 112.163 570.575 111.981C572.974 111.725 574.911 111.494 576.376 111.271C577.5 111.159 578.588 110.815 579.572 110.262C579.896 110.046 580.158 109.749 580.332 109.401C580.506 109.053 580.587 108.666 580.566 108.277V108.123C580.608 107.388 580.486 106.653 580.209 105.971C579.932 105.289 579.506 104.677 578.963 104.179C577.677 103.178 576.067 102.682 574.439 102.785C572.7 102.695 570.978 103.169 569.53 104.137C568.362 104.974 567.511 106.179 567.114 107.558L556.541 106.703C557.031 104.308 558.119 102.075 559.702 100.21C561.362 98.3221 563.46 96.8683 565.811 95.9754C568.587 94.934 571.535 94.4288 574.499 94.4869C576.721 94.4776 578.935 94.7477 581.088 95.2911C583.088 95.7856 584.985 96.6284 586.692 97.7805C588.317 98.8892 589.648 100.374 590.573 102.109C591.567 104.062 592.056 106.233 591.995 108.423V136.182H581.14V130.476H580.78C580.121 131.776 579.22 132.937 578.124 133.898C576.95 134.91 575.591 135.686 574.122 136.182C572.396 136.721 570.593 136.973 568.784 136.927ZM572.066 129.048C573.61 129.078 575.139 128.735 576.521 128.047C577.753 127.42 578.798 126.482 579.555 125.327C580.289 124.165 580.67 122.816 580.651 121.443V117.071C580.193 117.347 579.701 117.559 579.186 117.704C578.569 117.884 577.875 118.055 577.104 118.209C576.333 118.363 575.57 118.491 574.799 118.611L572.709 118.919C571.499 119.08 570.316 119.397 569.187 119.86C568.274 120.218 567.471 120.808 566.857 121.571C566.273 122.346 565.971 123.297 566 124.266C565.963 124.954 566.1 125.64 566.4 126.261C566.7 126.881 567.151 127.416 567.713 127.816C568.988 128.674 570.504 129.106 572.04 129.048H572.066Z" fill="#0037D8"/>
<path d="M280.897 175.442V171.498H303.286V175.442H294.264V199.01H289.98V175.442H280.897Z" fill="#0037D8"/>
<path d="M266.058 199.582C263.752 199.673 261.472 199.069 259.514 197.848C257.557 196.628 256.012 194.847 255.082 192.738C254.08 190.411 253.567 187.902 253.574 185.368C253.582 182.835 254.109 180.329 255.125 178.007C256.081 175.967 257.588 174.234 259.478 173.003C261.425 171.764 263.697 171.13 266.006 171.181C267.809 171.153 269.597 171.52 271.241 172.258C272.743 172.935 274.055 173.969 275.063 175.27C276.068 176.583 276.707 178.138 276.914 179.778H272.681C272.319 178.474 271.569 177.311 270.53 176.442C269.28 175.416 267.691 174.894 266.075 174.979C264.531 174.947 263.016 175.395 261.74 176.262C260.459 177.17 259.459 178.418 258.852 179.864C258.133 181.583 257.782 183.433 257.824 185.296C257.78 187.196 258.124 189.085 258.835 190.848C259.426 192.319 260.421 193.594 261.705 194.526C262.99 195.405 264.518 195.86 266.075 195.827C267.103 195.842 268.124 195.647 269.074 195.253C269.95 194.889 270.73 194.327 271.353 193.611C271.986 192.868 272.44 191.99 272.681 191.045H276.914C276.687 192.643 276.068 194.161 275.111 195.463C274.155 196.765 272.89 197.81 271.43 198.504C269.748 199.276 267.908 199.645 266.058 199.582Z" fill="#0037D8"/>
<path d="M319.23 199.581C316.95 199.65 314.7 199.049 312.76 197.852C310.819 196.655 309.274 194.915 308.315 192.849C307.224 190.519 306.688 187.969 306.747 185.398C306.687 182.81 307.224 180.243 308.315 177.895C309.292 175.83 310.837 174.084 312.769 172.862C314.702 171.639 316.942 170.99 319.23 170.99C321.518 170.99 323.759 171.639 325.691 172.862C327.624 174.084 329.169 175.83 330.146 177.895C331.24 180.243 331.779 182.809 331.723 185.398C331.779 187.97 331.239 190.519 330.146 192.849C329.19 194.917 327.645 196.659 325.703 197.856C323.762 199.053 321.511 199.653 319.23 199.581ZM319.23 195.783C320.907 195.852 322.556 195.341 323.9 194.337C325.137 193.339 326.074 192.018 326.607 190.522C327.197 188.876 327.487 187.137 327.464 185.389C327.483 183.641 327.193 181.904 326.607 180.256C326.077 178.749 325.14 177.417 323.9 176.407C322.533 175.449 320.904 174.936 319.235 174.936C317.565 174.936 315.936 175.449 314.569 176.407C313.324 177.412 312.386 178.746 311.862 180.256C311.272 181.903 310.982 183.641 311.005 185.389C310.978 187.138 311.268 188.877 311.862 190.522C312.389 192.022 313.327 193.344 314.569 194.337C315.909 195.342 317.556 195.852 319.23 195.783Z" fill="#0037D8"/>
<path d="M342.407 171.498V199.01H338.175V171.498H342.407ZM353.246 193.278L362.868 171.498H366.886L354.968 199.01H351.541L339.846 171.498H343.795L353.246 193.278ZM364.085 199.01V171.498H368.292V199.01H364.085Z" fill="#0037D8"/>
<path d="M384.176 199.659C382.54 199.684 380.919 199.345 379.429 198.667C378.036 198.05 376.847 197.05 376.002 195.784C375.138 194.417 374.703 192.823 374.751 191.207C374.691 189.864 375.015 188.532 375.685 187.366C376.298 186.388 377.158 185.588 378.179 185.048C379.257 184.47 380.41 184.044 381.606 183.782C382.865 183.508 384.133 183.286 385.419 183.114C387.089 182.901 388.452 182.738 389.497 182.618C390.293 182.572 391.072 182.375 391.793 182.037C392.038 181.892 392.236 181.681 392.365 181.428C392.494 181.175 392.548 180.891 392.521 180.608V180.463C392.569 179.715 392.465 178.965 392.216 178.258C391.968 177.551 391.579 176.902 391.073 176.348C390.483 175.819 389.791 175.416 389.04 175.163C388.289 174.91 387.494 174.813 386.704 174.876C385.018 174.777 383.347 175.244 381.957 176.202C380.929 176.934 380.096 177.906 379.532 179.034L375.514 177.597C376.126 176.071 377.116 174.725 378.393 173.687C379.559 172.764 380.904 172.091 382.343 171.711C383.72 171.341 385.14 171.151 386.567 171.146C387.593 171.164 388.617 171.27 389.625 171.463C390.812 171.682 391.947 172.117 392.976 172.746C394.136 173.447 395.082 174.454 395.709 175.655C396.5 177.28 396.871 179.077 396.788 180.882V199.009H392.556V195.288H392.342C391.966 195.998 391.48 196.645 390.902 197.204C390.129 197.94 389.221 198.521 388.229 198.915C386.942 199.434 385.564 199.687 384.176 199.659ZM384.819 195.861C386.294 195.907 387.756 195.568 389.06 194.877C390.154 194.279 391.061 193.391 391.682 192.311C392.251 191.313 392.547 190.183 392.539 189.034V185.168C392.206 185.463 391.801 185.664 391.365 185.749C390.68 185.94 389.985 186.088 389.283 186.194C388.494 186.322 387.74 186.425 387.004 186.519L385.221 186.742C384.174 186.874 383.141 187.106 382.137 187.435C381.265 187.706 380.476 188.191 379.841 188.846C379.236 189.56 378.929 190.479 378.984 191.413C378.948 192.06 379.08 192.705 379.367 193.286C379.653 193.868 380.085 194.365 380.62 194.732C381.871 195.528 383.337 195.922 384.819 195.861Z" fill="#0037D8"/>
<path d="M400.85 175.442V171.498H423.212V175.442H414.173V199.01H409.94V175.442H400.85Z" fill="#0037D8"/>
<path d="M439.149 199.582C436.875 199.644 434.632 199.039 432.699 197.842C430.765 196.646 429.224 194.91 428.268 192.849C427.171 190.521 426.631 187.97 426.691 185.398C426.63 182.809 427.17 180.242 428.268 177.896C429.247 175.833 430.793 174.09 432.725 172.87C434.658 171.65 436.897 171.002 439.183 171.002C441.47 171.002 443.709 171.65 445.641 172.87C447.574 174.09 449.119 175.833 450.099 177.896C451.19 180.244 451.726 182.81 451.667 185.398C451.726 187.969 451.189 190.519 450.099 192.849C449.14 194.915 447.594 196.655 445.654 197.852C443.713 199.049 441.463 199.65 439.183 199.582H439.149ZM439.149 195.783C440.823 195.853 442.47 195.342 443.81 194.338C445.05 193.342 445.988 192.02 446.518 190.522C447.111 188.877 447.401 187.138 447.374 185.389C447.398 183.641 447.108 181.903 446.518 180.257C445.99 178.748 445.053 177.415 443.81 176.407C442.443 175.45 440.814 174.936 439.145 174.936C437.475 174.936 435.846 175.45 434.48 176.407C433.239 177.417 432.303 178.749 431.772 180.257C431.186 181.904 430.896 183.642 430.915 185.389C430.892 187.138 431.183 188.876 431.772 190.522C432.305 192.019 433.242 193.339 434.48 194.338C435.823 195.342 437.472 195.852 439.149 195.783Z" fill="#0037D8"/>
<path d="M455.686 199.01V195.074H456.688C457.409 195.099 458.122 194.927 458.753 194.578C459.373 194.168 459.842 193.567 460.09 192.867C460.502 191.749 460.767 190.581 460.878 189.394C461.066 187.906 461.195 185.972 461.281 183.705L461.786 171.523H480.156V199.01H475.923V175.441H465.77L465.342 185.254C465.269 187.26 465.069 189.261 464.742 191.242C464.502 192.73 464.034 194.173 463.354 195.519C462.803 196.604 461.957 197.511 460.912 198.137C459.732 198.751 458.412 199.046 457.082 198.993L455.686 199.01Z" fill="#0037D8"/>
<path d="M499.066 199.582C496.786 199.65 494.536 199.049 492.596 197.852C490.655 196.655 489.11 194.915 488.151 192.849C487.06 190.519 486.524 187.969 486.583 185.398C486.523 182.81 487.06 180.244 488.151 177.896C489.13 175.833 490.676 174.09 492.608 172.87C494.54 171.65 496.78 171.002 499.066 171.002C501.353 171.002 503.592 171.65 505.524 172.87C507.456 174.09 509.002 175.833 509.982 177.896C511.073 180.244 511.609 182.81 511.55 185.398C511.609 187.969 511.072 190.519 509.982 192.849C509.023 194.915 507.477 196.655 505.537 197.852C503.596 199.049 501.346 199.65 499.066 199.582ZM499.066 195.783C500.741 195.854 502.388 195.343 503.727 194.338C504.97 193.343 505.911 192.021 506.443 190.522C507.033 188.876 507.323 187.138 507.3 185.389C507.319 183.642 507.029 181.904 506.443 180.257C505.913 178.747 504.972 177.414 503.727 176.407C502.362 175.449 500.735 174.935 499.066 174.935C497.398 174.935 495.77 175.449 494.405 176.407C493.16 177.414 492.22 178.747 491.689 180.257C491.103 181.904 490.813 183.642 490.832 185.389C490.81 187.138 491.1 188.876 491.689 190.522C492.222 192.021 493.162 193.343 494.405 194.338C495.745 195.343 497.392 195.854 499.066 195.783Z" fill="#0037D8"/>
<path d="M535.017 171.498V175.442H522.242V199.01H518.01V171.498H535.017Z" fill="#0037D8"/>
<path d="M545.428 192.782L558.7 171.498H563.583V199.01H559.359V177.734L546.139 199.01H541.187V171.498H545.471L545.428 192.782Z" fill="#0037D8"/>
<path d="M569.538 199.009L577.361 185.322H581.953L574.131 199.009H569.538ZM587.908 199.009V175.364H580.582C579.192 175.284 577.816 175.689 576.692 176.511C576.227 176.891 575.857 177.374 575.612 177.922C575.366 178.47 575.252 179.067 575.279 179.667C575.25 180.245 575.349 180.823 575.57 181.358C575.791 181.894 576.127 182.374 576.555 182.764C577.55 183.566 578.809 183.968 580.085 183.893H588.979V187.837H580.085C578.424 187.878 576.774 187.541 575.262 186.853C573.961 186.244 572.872 185.261 572.134 184.03C571.38 182.702 571.004 181.193 571.046 179.667C571 178.13 571.399 176.613 572.194 175.296C572.988 174.053 574.133 173.073 575.484 172.481C577.093 171.792 578.832 171.457 580.582 171.497H591.918V199.009H587.908Z" fill="#0037D8"/>
</svg>
